<svg width="24.000000" height="24.000000" viewBox="0 0 24 24" fill="none" xmlns="http://www.w3.org/2000/svg" xmlns:xlink="http://www.w3.org/1999/xlink">
	<desc>
			Created with Pixso.
	</desc>
	<defs>
		<clipPath id="clip134_5126">
			<rect id="iconamoon:eye-light" rx="0.000000" width="23.000000" height="23.000000" transform="translate(0.500000 0.500000)" fill="white" fill-opacity="0"/>
		</clipPath>
	</defs>
	<rect id="iconamoon:eye-light" rx="0.000000" width="23.000000" height="23.000000" transform="translate(0.500000 0.500000)" fill="#FFFFFF" fill-opacity="0"/>
	<g clip-path="url(#clip134_5126)">
		<path id="Vector" d="M14.12 14.12C13.55 14.68 12.79 15 12 15C11.2 15 10.44 14.68 9.87 14.12C9.31 13.55 9 12.79 9 12C9 11.2 9.31 10.44 9.87 9.87C10.44 9.31 11.2 9 12 9C12.79 9 13.55 9.31 14.12 9.87C14.68 10.44 15 11.2 15 12C15 12.79 14.68 13.55 14.12 14.12Z" stroke="#9C9C9C" stroke-opacity="1.000000" stroke-width="1.500000" stroke-linejoin="round"/>
		<path id="Vector" d="M12 5C16.66 5 20.4 7.9 22 12C20.4 16.09 16.66 19 12 19C7.33 19 3.59 16.09 2 12C3.59 7.9 7.33 5 12 5Z" stroke="#9C9C9C" stroke-opacity="1.000000" stroke-width="1.500000" stroke-linejoin="round"/>
	</g>
</svg>
