<svg width="24.000000" height="24.000000" viewBox="0 0 24 24" fill="none" xmlns="http://www.w3.org/2000/svg" xmlns:xlink="http://www.w3.org/1999/xlink">
	<desc>
			Created with Pixso.
	</desc>
	<defs>
		<clipPath id="clip134_5175">
			<rect id="iconamoon:eye-off-light" rx="0.000000" width="23.000000" height="23.000000" transform="translate(0.500000 0.500000)" fill="white" fill-opacity="0"/>
		</clipPath>
	</defs>
	<rect id="iconamoon:eye-off-light" rx="0.000000" width="23.000000" height="23.000000" transform="translate(0.500000 0.500000)" fill="#FFFFFF" fill-opacity="0"/>
	<g clip-path="url(#clip134_5175)">
		<path id="Vector" d="M10.73 5.07C11.15 5.02 11.57 4.99 12 5C16.66 5 20.4 7.9 22 12C21.61 12.99 21.08 13.93 20.44 14.78M6.51 6.51C4.48 7.76 2.9 9.69 2 12C3.59 16.09 7.33 19 12 19C13.93 19.01 15.82 18.48 17.48 17.48M9.87 9.87C9.6 10.15 9.38 10.48 9.22 10.85C9.07 11.21 9 11.6 9 12C9 12.39 9.07 12.78 9.22 13.14C9.38 13.51 9.6 13.84 9.87 14.12C10.15 14.4 10.48 14.62 10.85 14.77C11.21 14.92 11.6 15 12 15C12.39 15 12.78 14.92 13.14 14.77C13.51 14.62 13.84 14.4 14.12 14.12" stroke="#2E2E2E" stroke-opacity="1.000000" stroke-width="1.500000" stroke-linejoin="round" stroke-linecap="round"/>
		<path id="Vector" d="M4 4L20 20" stroke="#2E2E2E" stroke-opacity="1.000000" stroke-width="1.500000" stroke-linecap="round"/>
	</g>
</svg>
