<svg width="32.000000" height="32.000000" viewBox="0 0 32 32" fill="none" xmlns="http://www.w3.org/2000/svg" xmlns:xlink="http://www.w3.org/1999/xlink">
	<desc>
			Created with Pixso.
	</desc>
	<defs>
		<clipPath id="clip4_496">
			<rect id="ph:heart-fill" rx="0.000000" width="31.000000" height="31.000000" transform="translate(0.500000 0.500000)" fill="white" fill-opacity="0"/>
		</clipPath>
	</defs>
	<rect id="Property 1=Default" rx="0.000000" width="31.000000" height="31.000000" transform="translate(0.500000 0.500000)" fill="#FFFFFF" fill-opacity="0"/>
	<rect id="ph:heart-fill" rx="0.000000" width="31.000000" height="31.000000" transform="translate(0.500000 0.500000)" fill="#FFFFFF" fill-opacity="0"/>
	<g clip-path="url(#clip4_496)">
		<path id="Vector" d="M17.42 6.55C16.88 6.96 16.4 7.44 16 7.98C15.59 7.44 15.11 6.96 14.57 6.55C13.25 5.56 11.58 5 9.75 5C7.69 5 5.72 5.81 4.27 7.27C2.81 8.72 2 10.69 2 12.75C2 21.5 14.97 28.58 15.52 28.87C15.67 28.95 15.83 28.99 16 28.99C16.16 28.99 16.32 28.95 16.47 28.87C17.02 28.58 30 21.5 30 12.75C29.99 10.69 29.18 8.72 27.72 7.27C26.27 5.81 24.3 5 22.25 5C20.41 5 18.74 5.56 17.42 6.55ZM16 26.85Q19.06 25.15 22.12 22.47Q28 17.33 28 12.75Q27.99 11.56 27.57 10.54Q27.15 9.52 26.31 8.68Q25.46 7.84 24.44 7.42Q23.43 7 22.25 7Q20.39 7 19.05 7.83Q18.22 8.35 17.59 9.18L16 11.31L14.4 9.18Q13.77 8.34 12.94 7.83Q11.6 7 9.75 7Q8.56 7 7.54 7.42Q6.52 7.84 5.68 8.68Q4.84 9.53 4.41 10.55Q4 11.56 4 12.75Q4 17.33 9.87 22.47Q12.92 25.15 16 26.85Z" fill="#8748FF" fill-opacity="1.000000" fill-rule="evenodd"/>
	</g>
</svg>
