<svg width="14.000000" height="14.000000" viewBox="0 0 14 14" fill="none" xmlns="http://www.w3.org/2000/svg" xmlns:xlink="http://www.w3.org/1999/xlink">
	<desc>
			Created with Pixso.
	</desc>
	<defs/>
	<path id="Vector" d="M8.23 11.36L8.23 8.45L5.76 8.45L5.76 11.36L3.87 11.36L6.16 13.65C6.62 14.11 7.37 14.11 7.83 13.65L10.12 11.36L8.23 11.36ZM2.63 10.12L2.63 3.87L0.34 6.16C-0.12 6.62 -0.12 7.36 0.34 7.82L2.63 10.12ZM5.76 2.63L5.76 5.54L8.23 5.54L8.23 2.63L10.12 2.63L7.82 0.34C7.36 -0.12 6.62 -0.12 6.16 0.34L3.87 2.63L5.76 2.63ZM13.64 6.15L11.35 3.87L11.35 10.12L13.64 7.82C14.11 7.37 14.11 6.63 13.66 6.16C13.66 6.16 13.66 6.16 13.65 6.16C13.65 6.16 13.65 6.16 13.64 6.16L13.64 6.15Z" fill="#EB3323" fill-opacity="1.000000" fill-rule="nonzero"/>
</svg>
