<svg width="30.000000" height="30.000000" viewBox="0 0 30 30" fill="none" xmlns="http://www.w3.org/2000/svg" xmlns:xlink="http://www.w3.org/1999/xlink">
	<desc>
			Created with Pixso.
	</desc>
	<defs>
		<clipPath id="clip10_413">
			<rect id="proicons:cart" rx="0.000000" width="29.000000" height="29.000000" transform="translate(0.500000 0.500000)" fill="white" fill-opacity="0"/>
		</clipPath>
	</defs>
	<rect id="proicons:cart" rx="0.000000" width="29.000000" height="29.000000" transform="translate(0.500000 0.500000)" fill="#FFFFFF" fill-opacity="0"/>
	<g clip-path="url(#clip10_413)">
		<path id="Vector" d="M11.93 25.93C10.76 25.93 9.81 24.98 9.81 23.81C9.81 22.63 10.76 21.68 11.93 21.68C13.11 21.68 14.06 22.63 14.06 23.81C14.06 24.98 13.11 25.93 11.93 25.93Z" stroke="#0E0E0E" stroke-opacity="1.000000" stroke-width="2.000000" stroke-linejoin="round"/>
		<path id="Vector" d="M21.2 25.93C20.02 25.93 19.07 24.98 19.07 23.81C19.07 22.63 20.02 21.68 21.2 21.68C22.37 21.68 23.32 22.63 23.32 23.81C23.32 24.98 22.37 25.93 21.2 25.93Z" stroke="#0E0E0E" stroke-opacity="1.000000" stroke-width="2.000000" stroke-linejoin="round"/>
		<path id="Vector" d="M3.12 4.06C3.4 4.06 3.54 4.06 3.67 4.07C4.36 4.12 5.02 4.36 5.58 4.76C6.13 5.17 6.56 5.73 6.81 6.37C6.88 6.54 6.94 6.72 6.99 6.89L7 6.94L9.52 14.89C9.9 16.12 10.09 16.73 10.47 17.18C10.79 17.58 11.21 17.89 11.69 18.08C12.24 18.3 12.88 18.3 14.16 18.3L18.98 18.3C20.26 18.3 20.9 18.3 21.44 18.08C21.92 17.89 22.35 17.58 22.67 17.18C23.04 16.73 23.23 16.12 23.62 14.89L24.13 13.27L24.43 12.32L24.85 11C24.99 10.54 25.03 10.04 24.95 9.56C24.87 9.07 24.68 8.61 24.39 8.22C24.1 7.82 23.72 7.5 23.28 7.28C22.84 7.05 22.36 6.94 21.87 6.94L7 6.94" stroke="#0E0E0E" stroke-opacity="1.000000" stroke-width="2.000000" stroke-linejoin="round" stroke-linecap="round"/>
	</g>
</svg>
