<svg width="16.000000" height="16.000000" viewBox="0 0 16 16" fill="none" xmlns="http://www.w3.org/2000/svg" xmlns:xlink="http://www.w3.org/1999/xlink">
	<desc>
			Created with Pixso.
	</desc>
	<defs>
		<clipPath id="clip120_1778">
			<rect id="icon-park-outline:check-one" rx="0.000000" width="15.000000" height="15.000000" transform="translate(0.500000 0.500000)" fill="white" fill-opacity="0"/>
		</clipPath>
	</defs>
	<rect id="icon-park-outline:check-one" rx="0.000000" width="15.000000" height="15.000000" transform="translate(0.500000 0.500000)" fill="#FFFFFF" fill-opacity="0"/>
	<g clip-path="url(#clip120_1778)">
		<path id="Vector" d="M10.55 14.16C11.36 13.82 12.09 13.33 12.71 12.71C13.33 12.09 13.82 11.36 14.16 10.55C14.49 9.74 14.66 8.87 14.66 8C14.66 7.12 14.49 6.25 14.16 5.44C13.82 4.63 13.33 3.9 12.71 3.28C12.09 2.66 11.36 2.17 10.55 1.83C9.74 1.5 8.87 1.33 7.99 1.33C7.12 1.33 6.25 1.5 5.44 1.83C4.63 2.17 3.9 2.66 3.28 3.28C2.66 3.9 2.17 4.63 1.83 5.44C1.5 6.25 1.33 7.12 1.33 8C1.33 8.87 1.5 9.74 1.83 10.55C2.17 11.36 2.66 12.09 3.28 12.71C3.9 13.33 4.63 13.82 5.44 14.16C6.25 14.49 7.12 14.66 7.99 14.66C8.87 14.66 9.74 14.49 10.55 14.16Z" stroke="#35A035" stroke-opacity="1.000000" stroke-width="2.000000" stroke-linejoin="round"/>
		<path id="Vector" d="M5.33 8L7.33 10L11.33 6" stroke="#35A035" stroke-opacity="1.000000" stroke-width="2.000000" stroke-linejoin="round" stroke-linecap="round"/>
	</g>
</svg>
