<svg width="28" height="28" viewBox="0 0 28 28" fill="none" xmlns="http://www.w3.org/2000/svg">
<path d="M21.8284 22.75C20.8601 24.1967 19.8334 25.6083 18.2701 25.6317C16.7067 25.6667 16.2051 24.71 14.4317 24.71C12.6467 24.71 12.0984 25.6083 10.6167 25.6667C9.0884 25.725 7.9334 24.1267 6.9534 22.715C4.9584 19.8333 3.43007 14.525 5.4834 10.955C6.4984 9.18168 8.3184 8.06168 10.2901 8.02668C11.7834 8.00334 13.2067 9.04168 14.1284 9.04168C15.0384 9.04168 16.7651 7.79334 18.5734 7.98001C19.3317 8.01501 21.4551 8.28334 22.8201 10.29C22.7151 10.36 20.2884 11.7833 20.3117 14.735C20.3467 18.2583 23.4034 19.4367 23.4384 19.4483C23.4034 19.53 22.9484 21.1283 21.8284 22.75ZM15.1667 4.08334C16.0184 3.11501 17.4301 2.38001 18.5967 2.33334C18.7484 3.69834 18.2001 5.07501 17.3834 6.05501C16.5784 7.04668 15.2484 7.81668 13.9417 7.71168C13.7667 6.37001 14.4201 4.97001 15.1667 4.08334Z" fill="black"/>
</svg>
