<svg width="20.000000" height="20.000000" viewBox="0 0 20 20" fill="none" xmlns="http://www.w3.org/2000/svg" xmlns:xlink="http://www.w3.org/1999/xlink">
	<desc>
			Created with Pixso.
	</desc>
	<defs/>
	<rect id="iconamoon:history-light" rx="9.500000" width="19.000000" height="19.000000" transform="translate(0.500000 0.500000)" fill="#FFFFFF" fill-opacity="1.000000"/>
	<path id="Vector" d="M5.52 15.3C6.75 16.53 8.37 17.29 10.09 17.46C11.82 17.63 13.55 17.19 15 16.23C16.44 15.27 17.5 13.83 18.01 12.17C18.51 10.51 18.42 8.73 17.76 7.12C17.09 5.52 15.89 4.2 14.36 3.38C12.83 2.56 11.06 2.3 9.36 2.64C7.66 2.98 6.13 3.9 5.03 5.24C3.93 6.58 3.33 8.26 3.33 10L3.33 11.66" stroke="#2E2E2E" stroke-opacity="1.000000" stroke-width="1.500000" stroke-linejoin="round" stroke-linecap="round"/>
	<path id="Vector" d="M1.66 9.99L3.33 11.66L5 9.99M10 6.66L10 10.83L14.16 10.83" stroke="#2E2E2E" stroke-opacity="1.000000" stroke-width="1.500000" stroke-linejoin="round" stroke-linecap="round"/>
</svg>
